HIERARCHY
ROOT Model
{
	OFFSET 0 0 0
	CHANNELS 6 Xposition Yposition Zposition Zrotation Xrotation Yrotation
	JOINT Model1
	{
		OFFSET 0 -2.25479 2.99383
		CHANNELS 3 Zrotation Xrotation Yrotation
		JOINT Model2
		{
			OFFSET 12.111 0 0
			CHANNELS 3 Zrotation Xrotation Yrotation
			JOINT Model3
			{
				OFFSET 11.5502 0 0
				CHANNELS 3 Zrotation Xrotation Yrotation
				JOINT Model4
				{
					OFFSET 11.781 0 0
					CHANNELS 3 Zrotation Xrotation Yrotation
					JOINT Model5
					{
						OFFSET 20.0601 0 0
						CHANNELS 3 Zrotation Xrotation Yrotation
						JOINT Model6
						{
							OFFSET 11.1962 0 0
							CHANNELS 3 Zrotation Xrotation Yrotation
							End Site
							{
								OFFSET 0 0 0
							}
						}
					}
					JOINT Model7
					{
						OFFSET 10.8223 0.417534 3.51114
						CHANNELS 3 Zrotation Xrotation Yrotation
						JOINT Model8
						{
							OFFSET -6.07943 0 0
							CHANNELS 3 Zrotation Xrotation Yrotation
							JOINT Model9
							{
								OFFSET -0.277412 10.39 -0.0512447
								CHANNELS 3 Zrotation Xrotation Yrotation
								JOINT Model10
								{
									OFFSET -3.4391 -0.282043 1.86678
									CHANNELS 3 Zrotation Xrotation Yrotation
									JOINT Model11
									{
										OFFSET 13.0269 0 0
										CHANNELS 3 Zrotation Xrotation Yrotation
										JOINT Model12
										{
											OFFSET 10.8866 0 0
											CHANNELS 3 Zrotation Xrotation Yrotation
											JOINT Model13
											{
												OFFSET 16.7317 0 0
												CHANNELS 3 Zrotation Xrotation Yrotation
												JOINT Model14
												{
													OFFSET 11.8292 0 0
													CHANNELS 3 Zrotation Xrotation Yrotation
													JOINT Model15
													{
														OFFSET 4.82751 -3.73566 -0.836517
														CHANNELS 3 Zrotation Xrotation Yrotation
														JOINT Model16
														{
															OFFSET 3.75311 -0.0582886 -0.0186462
															CHANNELS 3 Zrotation Xrotation Yrotation
															JOINT Model17
															{
																OFFSET 2.88689 0.0192337 0.0148029
																CHANNELS 3 Zrotation Xrotation Yrotation
																End Site
																{
																	OFFSET 0 0 0
																}
															}
														}
													}
													JOINT Model18
													{
														OFFSET 9.72197 -3.06458 0.238768
														CHANNELS 3 Zrotation Xrotation Yrotation
														JOINT Model19
														{
															OFFSET 4.61131 0 0
															CHANNELS 3 Zrotation Xrotation Yrotation
															JOINT Model20
															{
																OFFSET 2.8969 -7.62939e-006 0
																CHANNELS 3 Zrotation Xrotation Yrotation
																End Site
																{
																	OFFSET 0 0 0
																}
															}
														}
													}
													JOINT Model21
													{
														OFFSET 9.54431 -0.745064 0.588938
														CHANNELS 3 Zrotation Xrotation Yrotation
														JOINT Model22
														{
															OFFSET 5.33978 0 0
															CHANNELS 3 Zrotation Xrotation Yrotation
															JOINT Model23
															{
																OFFSET 3.03619 7.62939e-006 0
																CHANNELS 3 Zrotation Xrotation Yrotation
																End Site
																{
																	OFFSET 0 0 0
																}
															}
														}
													}
													JOINT Model24
													{
														OFFSET 9.47758 1.51286 0.485121
														CHANNELS 3 Zrotation Xrotation Yrotation
														JOINT Model25
														{
															OFFSET 4.96136 7.62939e-006 0
															CHANNELS 3 Zrotation Xrotation Yrotation
															JOINT Model26
															{
																OFFSET 2.51965 0 0
																CHANNELS 3 Zrotation Xrotation Yrotation
																End Site
																{
																	OFFSET 0 0 0
																}
															}
														}
													}
													JOINT Model27
													{
														OFFSET 9.34247 3.34117 -0.239281
														CHANNELS 3 Zrotation Xrotation Yrotation
														JOINT Model28
														{
															OFFSET 3.28259 2.28882e-005 0
															CHANNELS 3 Zrotation Xrotation Yrotation
															JOINT Model29
															{
																OFFSET 2.1292 0 0
																CHANNELS 3 Zrotation Xrotation Yrotation
																End Site
																{
																	OFFSET 0 0 0
																}
															}
														}
													}
												}
											}
										}
									}
								}
							}
						}
					}
					JOINT Model30
					{
						OFFSET 10.8223 0.4179 -3.51107
						CHANNELS 3 Zrotation Xrotation Yrotation
						JOINT Model31
						{
							OFFSET 6.07943 0 0
							CHANNELS 3 Zrotation Xrotation Yrotation
							JOINT Model32
							{
								OFFSET 0.277412 -10.39 0.0512428
								CHANNELS 3 Zrotation Xrotation Yrotation
								JOINT Model33
								{
									OFFSET 3.4391 0.282043 -1.86678
									CHANNELS 3 Zrotation Xrotation Yrotation
									JOINT Model34
									{
										OFFSET -13.0269 0 0
										CHANNELS 3 Zrotation Xrotation Yrotation
										JOINT Model35
										{
											OFFSET -10.8866 0 0
											CHANNELS 3 Zrotation Xrotation Yrotation
											JOINT Model36
											{
												OFFSET -16.7317 0 0
												CHANNELS 3 Zrotation Xrotation Yrotation
												JOINT Model37
												{
													OFFSET -11.8292 0 0
													CHANNELS 3 Zrotation Xrotation Yrotation
													JOINT Model38
													{
														OFFSET -4.82751 3.73566 0.836517
														CHANNELS 3 Zrotation Xrotation Yrotation
														JOINT Model39
														{
															OFFSET -3.75311 0.0582886 0.0186424
															CHANNELS 3 Zrotation Xrotation Yrotation
															JOINT Model40
															{
																OFFSET -2.88688 -0.0192337 -0.014801
																CHANNELS 3 Zrotation Xrotation Yrotation
																End Site
																{
																	OFFSET 0 0 0
																}
															}
														}
													}
													JOINT Model41
													{
														OFFSET -9.72197 3.06459 -0.23877
														CHANNELS 3 Zrotation Xrotation Yrotation
														JOINT Model42
														{
															OFFSET -4.6113 0 0
															CHANNELS 3 Zrotation Xrotation Yrotation
															JOINT Model43
															{
																OFFSET -2.8969 0 0
																CHANNELS 3 Zrotation Xrotation Yrotation
																End Site
																{
																	OFFSET 0 0 0
																}
															}
														}
													}
													JOINT Model44
													{
														OFFSET -9.5443 0.745064 -0.58894
														CHANNELS 3 Zrotation Xrotation Yrotation
														JOINT Model45
														{
															OFFSET -5.33978 0 0
															CHANNELS 3 Zrotation Xrotation Yrotation
															JOINT Model46
															{
																OFFSET -3.03619 -1.52588e-005 0
																CHANNELS 3 Zrotation Xrotation Yrotation
																End Site
																{
																	OFFSET 0 0 0
																}
															}
														}
													}
													JOINT Model47
													{
														OFFSET -9.47759 -1.51286 -0.485123
														CHANNELS 3 Zrotation Xrotation Yrotation
														JOINT Model48
														{
															OFFSET -4.96136 -1.52588e-005 0
															CHANNELS 3 Zrotation Xrotation Yrotation
															JOINT Model49
															{
																OFFSET -2.51966 0 0
																CHANNELS 3 Zrotation Xrotation Yrotation
																End Site
																{
																	OFFSET 0 0 0
																}
															}
														}
													}
													JOINT Model50
													{
														OFFSET -9.34246 -3.34118 0.239277
														CHANNELS 3 Zrotation Xrotation Yrotation
														JOINT Model51
														{
															OFFSET -3.2826 -1.90735e-005 0
															CHANNELS 3 Zrotation Xrotation Yrotation
															JOINT Model52
															{
																OFFSET -2.1292 0 0
																CHANNELS 3 Zrotation Xrotation Yrotation
																End Site
																{
																	OFFSET 0 0 0
																}
															}
														}
													}
												}
											}
										}
									}
								}
							}
						}
					}
				}
			}
		}
	}
	JOINT Model53
	{
		OFFSET 4.38026 -2.14632 -1.11516
		CHANNELS 3 Zrotation Xrotation Yrotation
		JOINT Model54
		{
			OFFSET 0 0 4.94999
			CHANNELS 3 Zrotation Xrotation Yrotation
			JOINT Model55
			{
				OFFSET 18.5642 0 0
				CHANNELS 3 Zrotation Xrotation Yrotation
				JOINT Model56
				{
					OFFSET 21.2884 0 1.14441e-005
					CHANNELS 3 Zrotation Xrotation Yrotation
					JOINT Model57
					{
						OFFSET 30.261 0 0
						CHANNELS 3 Zrotation Xrotation Yrotation
						JOINT Model58
						{
							OFFSET 11.7259 0 0
							CHANNELS 3 Zrotation Xrotation Yrotation
							JOINT Model59
							{
								OFFSET 10.682 0 0
								CHANNELS 3 Zrotation Xrotation Yrotation
								End Site
								{
									OFFSET 0 0 0
								}
							}
						}
					}
				}
			}
		}
	}
	JOINT Model60
	{
		OFFSET -4.38026 -2.14632 -1.11516
		CHANNELS 3 Zrotation Xrotation Yrotation
		JOINT Model61
		{
			OFFSET 0 0 -4.94999
			CHANNELS 3 Zrotation Xrotation Yrotation
			JOINT Model62
			{
				OFFSET -18.5642 0 0
				CHANNELS 3 Zrotation Xrotation Yrotation
				JOINT Model63
				{
					OFFSET -21.2884 0 -1.14441e-005
					CHANNELS 3 Zrotation Xrotation Yrotation
					JOINT Model64
					{
						OFFSET -30.261 0 0
						CHANNELS 3 Zrotation Xrotation Yrotation
						JOINT Model65
						{
							OFFSET -11.7259 0 0
							CHANNELS 3 Zrotation Xrotation Yrotation
							JOINT Model66
							{
								OFFSET -10.682 0 0
								CHANNELS 3 Zrotation Xrotation Yrotation
								End Site
								{
									OFFSET 0 0 0
								}
							}
						}
					}
				}
			}
		}
	}
}
MOTION
Frames: 5
Frame Time: 0.033333
-95.0535 162.609 -10.3378 113.977 4.74223 92.7709 -180 4.29621e-031 -90 4.37554 -0.785649 0.272818 8.75597 -1.54862 0.604875 8.75597 -1.54819 0.604808 -2.66599 0.141564 5.97955 14.0959 1.78033 3.94891 120.092 75.5343 58.4939 3.02749 5.38208 1.30684 -167.277 84.4999 48.8109 157.908 -17.6932 -37.0864 7.14305e-006 0.824327 2.74887e-005 -2.09274 10.5751 11.9224 1.25547e-006 16.2504 1.63451e-006 -9.51792 1.34551 -16.0571 -72.0648 39.0385 39.3397 33.3638 2.10362 14.835 0.588947 0.308273 6.35287 -99.6409 81.413 100.35 -0.0181409 2.75815e-005 -0.117315 -0.124139 0.00241088 -0.799296 -79.8382 79.5773 80.5374 -0.000225756 -0.000221115 2.21444e-005 -0.000956199 0.000122634 -2.73887e-005 -66.7416 80.4058 67.2171 -0.000437111 1.57528e-005 -2.73672e-005 -0.000136575 -0.000109552 -5.47046e-005 -6.42159 81.2158 8.01779 -0.000218537 1.66919e-005 0.000212112 0.000901624 -0.000185095 -0.000218604 -59.9282 75.5373 58.5147 0.491735 4.31258 1.54025 -167.277 84.4999 48.8109 164.601 -18.3638 -21.0376 7.10839e-006 -0.296363 2.9104e-005 -1.57651 9.1682 -0.106363 -5.44571e-006 13.7796 2.33171e-006 -8.06329 0.638592 -9.04168 -72.0648 39.0385 39.3397 33.3638 2.10361 14.835 0.588946 0.308273 6.35287 -99.6409 81.413 100.35 -0.018141 3.0396e-005 -0.117315 -0.124139 0.00241155 -0.799296 -79.8382 79.5773 80.5374 -0.00026068 -0.000218277 2.36322e-005 -0.000956272 0.000123387 -2.72372e-005 -66.7416 80.4058 67.2171 -0.000437173 1.5192e-005 -2.7259e-005 -0.000136659 -0.000108863 -5.45581e-005 -6.42159 81.2158 8.01779 -0.00021864 2.00317e-005 0.000212343 0.000901483 -0.000190633 -0.000218504 0.000811311 0.56661 89.91 -45.2731 -75.3155 -95.0472 180 -74.4921 180 42.8484 61.4355 -0.0117701 180 87.9269 -180 -23.9894 -1.46077 2.88253 -35.4947 2.90056e-007 4.45137e-007 -180 -0.566579 -90.09 -6.24913 -44.5117 -41.3131 -1.72497e-005 -39.5088 -6.40171e-006 37.8241 23.7935 -0.00532505 4.48768e-007 35.6188 2.34108e-006 -52.8015 6.96741 -5.4196 -35.4947 2.41924e-007 2.68109e-007 
-95.0675 162.607 -10.3237 113.931 4.68 92.7945 -180 4.29621e-031 -90 4.37661 -0.776639 0.276218 8.75809 -1.53036 0.61099 8.75809 -1.52993 0.610923 -2.79541 0.139283 6.1344 14.1542 1.81293 3.73116 120.092 75.5343 58.4939 3.07098 5.39743 1.30164 -167.277 84.4999 48.8109 157.932 -17.7423 -37.0666 7.17191e-006 0.764175 2.74883e-005 -2.06942 10.5098 11.868 1.25853e-006 16.1475 1.63366e-006 -9.64424 1.35621 -15.9728 -72.0648 39.0385 39.3397 33.3638 2.10362 14.835 0.588947 0.308273 6.35287 -99.6409 81.413 100.35 -0.0181409 2.75815e-005 -0.117315 -0.124139 0.00241088 -0.799296 -79.8382 79.5773 80.5374 -0.000225756 -0.000221115 2.21444e-005 -0.000956199 0.000122634 -2.73887e-005 -66.7416 80.4058 67.2171 -0.000437111 1.57528e-005 -2.73672e-005 -0.000136575 -0.000109552 -5.47046e-005 -6.42159 81.2158 8.01779 -0.000218537 1.66919e-005 0.000212112 0.000901624 -0.000185095 -0.000218604 -59.9282 75.5373 58.5147 0.522797 4.23729 1.51096 -167.277 84.4999 48.8109 164.506 -18.3372 -21.0284 7.10795e-006 -0.295488 2.9104e-005 -1.57417 9.22908 -0.107471 -5.44954e-006 13.8709 2.33262e-006 -8.02173 0.641594 -9.13112 -72.0648 39.0385 39.3397 33.3638 2.10361 14.835 0.588946 0.308273 6.35287 -99.6409 81.413 100.35 -0.018141 3.0396e-005 -0.117315 -0.124139 0.00241155 -0.799296 -79.8382 79.5773 80.5374 -0.00026068 -0.000218277 2.36322e-005 -0.000956272 0.000123387 -2.72372e-005 -66.7416 80.4058 67.2171 -0.000437173 1.5192e-005 -2.7259e-005 -0.000136659 -0.000108863 -5.45581e-005 -6.42159 81.2158 8.01779 -0.00021864 2.00317e-005 0.000212343 0.000901483 -0.000190633 -0.000218504 0.000811311 0.56661 89.91 -45.3377 -75.3536 -95.0714 180 -74.3832 180 42.8506 61.4478 -0.0117676 180 87.9086 -180 -23.984 -1.45597 2.87729 -35.4947 2.91376e-007 4.42962e-007 -180 -0.566579 -90.09 -6.3105 -44.3835 -41.2554 -1.72275e-005 -39.3551 -6.38761e-006 37.8509 23.7563 -0.00532673 4.51573e-007 35.563 2.33944e-006 -52.8658 6.94217 -5.39786 -35.4947 2.39035e-007 2.64704e-007 
-95.0805 162.609 -10.3074 113.902 4.65745 92.7774 -180 4.29621e-031 -90 4.38225 -0.775956 0.280695 8.76943 -1.52862 0.619955 8.76943 -1.52819 0.619888 -2.8862 0.163976 6.08466 14.141 1.82902 3.72621 120.092 75.5343 58.4939 3.06402 5.36635 1.2945 -167.277 84.4999 48.8109 157.947 -17.7479 -37.0399 7.17364e-006 0.76056 2.74883e-005 -2.05613 10.4725 11.8367 1.26027e-006 16.0888 1.63317e-006 -9.72027 1.37573 -16.0738 -72.0648 39.0385 39.3397 33.3638 2.10362 14.835 0.588947 0.308273 6.35287 -99.6409 81.413 100.35 -0.0181409 2.75815e-005 -0.117315 -0.124139 0.00241088 -0.799296 -79.8382 79.5773 80.5374 -0.000225756 -0.000221115 2.21444e-005 -0.000956199 0.000122634 -2.73887e-005 -66.7416 80.4058 67.2171 -0.000437111 1.57528e-005 -2.73672e-005 -0.000136575 -0.000109552 -5.47046e-005 -6.42159 81.2158 8.01779 -0.000218537 1.66919e-005 0.000212112 0.000901624 -0.000185095 -0.000218604 -59.9282 75.5373 58.5147 0.648788 4.2061 1.47509 -167.277 84.4999 48.8109 164.481 -18.3185 -20.9587 7.10748e-006 -0.294559 2.91039e-005 -1.57425 9.22677 -0.107434 -5.44939e-006 13.8675 2.33259e-006 -7.98945 0.645065 -9.21725 -72.0648 39.0385 39.3397 33.3638 2.10361 14.835 0.588946 0.308273 6.35287 -99.6409 81.413 100.35 -0.018141 3.0396e-005 -0.117315 -0.124139 0.00241155 -0.799296 -79.8382 79.5773 80.5374 -0.00026068 -0.000218277 2.36322e-005 -0.000956272 0.000123387 -2.72372e-005 -66.7416 80.4058 67.2171 -0.000437173 1.5192e-005 -2.7259e-005 -0.000136659 -0.000108863 -5.45581e-005 -6.42159 81.2158 8.01779 -0.00021864 2.00317e-005 0.000212343 0.000901483 -0.000190633 -0.000218504 0.000811311 0.56661 89.91 -45.3177 -75.4042 -94.9876 180 -74.2814 180 42.8436 61.4846 -0.0117736 180 87.8534 -180 -23.9478 -1.36433 2.77038 -35.4947 2.92451e-007 4.4016e-007 -180 -0.566579 -90.09 -6.35739 -44.2502 -41.2055 -1.72018e-005 -39.1763 -6.37133e-006 37.8785 23.6724 -0.00532601 4.57878e-007 35.4371 2.33578e-006 -52.9513 6.94553 -5.39586 -35.4947 2.3544e-007 2.59958e-007 
-95.0835 162.618 -10.3014 113.913 4.68629 92.6994 -180 4.29621e-031 -90 4.38192 -0.779662 0.27046 8.76865 -1.5368 0.599792 8.76865 -1.53637 0.599725 -2.82566 0.165544 6.00932 14.0566 1.81015 3.7987 120.092 75.5343 58.4939 3.07769 5.41186 1.30418 -167.277 84.4999 48.8109 158.078 -17.8027 -37.0198 7.17641e-006 0.754788 2.74882e-005 -2.07388 10.52 11.881 1.25804e-006 16.1639 1.63379e-006 -9.71762 1.39478 -16.2981 -72.0648 39.0385 39.3397 33.3638 2.10362 14.835 0.588947 0.308273 6.35287 -99.6409 81.413 100.35 -0.0181409 2.75815e-005 -0.117315 -0.124139 0.00241088 -0.799296 -79.8382 79.5773 80.5374 -0.000225756 -0.000221115 2.21444e-005 -0.000956199 0.000122634 -2.73887e-005 -66.7416 80.4058 67.2171 -0.000437111 1.57528e-005 -2.73672e-005 -0.000136575 -0.000109552 -5.47046e-005 -6.42159 81.2158 8.01779 -0.000218537 1.66919e-005 0.000212112 0.000901624 -0.000185095 -0.000218604 -59.9282 75.5373 58.5147 0.655897 4.13089 1.45091 -167.277 84.4999 48.8109 164.418 -18.3044 -20.9743 7.1073e-006 -0.294209 2.91039e-005 -1.57495 9.20822 -0.107098 -5.44823e-006 13.8396 2.33231e-006 -7.97483 0.643542 -9.21233 -72.0648 39.0385 39.3397 33.3638 2.10361 14.835 0.588946 0.308273 6.35287 -99.6409 81.413 100.35 -0.018141 3.0396e-005 -0.117315 -0.124139 0.00241155 -0.799296 -79.8382 79.5773 80.5374 -0.00026068 -0.000218277 2.36322e-005 -0.000956272 0.000123387 -2.72372e-005 -66.7416 80.4058 67.2171 -0.000437173 1.5192e-005 -2.7259e-005 -0.000136659 -0.000108863 -5.45581e-005 -6.42159 81.2158 8.01779 -0.00021864 2.00317e-005 0.000212343 0.000901483 -0.000190633 -0.000218504 0.000811311 0.56661 89.91 -45.1144 -75.4385 -94.7384 180 -74.291 180 42.8057 61.5068 -0.0117731 180 87.82 -180 -23.929 -1.24624 2.62987 -35.4947 2.93284e-007 4.36743e-007 -180 -0.566579 -90.09 -6.39061 -44.171 -41.2299 -1.71807e-005 -39.0294 -6.35807e-006 37.8942 23.562 -0.00532374 4.66152e-007 35.2715 2.33099e-006 -53.0242 6.97227 -5.41153 -35.4947 2.31152e-007 2.53897e-007 
-95.0805 162.628 -10.2952 113.926 4.72527 92.6254 -180 4.29621e-031 -90 4.37404 -0.783199 0.254261 8.75271 -1.54515 0.567603 8.75271 -1.54472 0.567536 -2.66184 0.158491 6.04999 13.8926 1.79721 3.75898 120.092 75.5343 58.4939 3.09787 5.49174 1.322 -167.277 84.4999 48.8109 158.222 -17.8767 -37.0271 7.18648e-006 0.73381 2.74881e-005 -2.08739 10.5648 11.9046 1.25597e-006 16.2337 1.63437e-006 -9.68451 1.39668 -16.3751 -72.0648 39.0385 39.3397 33.3638 2.10362 14.835 0.588947 0.308273 6.35287 -99.6409 81.413 100.35 -0.0181409 2.75815e-005 -0.117315 -0.124139 0.00241088 -0.799296 -79.8382 79.5773 80.5374 -0.000225756 -0.000221115 2.21444e-005 -0.000956199 0.000122634 -2.73887e-005 -66.7416 80.4058 67.2171 -0.000437111 1.57528e-005 -2.73672e-005 -0.000136575 -0.000109552 -5.47046e-005 -6.42159 81.2158 8.01779 -0.000218537 1.66919e-005 0.000212112 0.000901624 -0.000185095 -0.000218604 -59.9282 75.5373 58.5147 0.546634 4.07121 1.4558 -167.277 84.4999 48.8109 164.357 -18.3055 -21.0747 7.10763e-006 -0.294852 2.91039e-005 -1.57406 9.23199 -0.107524 -5.44972e-006 13.8753 2.33267e-006 -8.0181 0.640757 -9.12335 -72.0648 39.0385 39.3397 33.3638 2.10361 14.835 0.588946 0.308273 6.35287 -99.6409 81.413 100.35 -0.018141 3.0396e-005 -0.117315 -0.124139 0.00241155 -0.799296 -79.8382 79.5773 80.5374 -0.00026068 -0.000218277 2.36322e-005 -0.000956272 0.000123387 -2.72372e-005 -66.7416 80.4058 67.2171 -0.000437173 1.5192e-005 -2.7259e-005 -0.000136659 -0.000108863 -5.45581e-005 -6.42159 81.2158 8.01779 -0.00021864 2.00317e-005 0.000212343 0.000901483 -0.000190633 -0.000218504 0.000811311 0.56661 89.91 -44.9256 -75.4434 -94.5281 180 -74.3561 180 42.7692 61.5051 -0.0117628 180 87.8224 -180 -23.9566 -1.20086 2.57264 -35.4947 2.93879e-007 4.32723e-007 -180 -0.566579 -90.09 -6.4088 -44.136 -41.2687 -1.71685e-005 -38.944 -6.3504e-006 37.8919 23.4768 -0.00532204 4.72508e-007 35.1437 2.32733e-006 -53.0838 6.936 -5.38209 -35.4947 2.26186e-007 2.46548e-007 
